<?xml version="1.0" encoding="utf-8"?>
<!-- Generator: Adobe Illustrator 19.0.0, SVG Export Plug-In . SVG Version: 6.00 Build 0)  -->
<svg version="1.1" id="Layer_1" xmlns="http://www.w3.org/2000/svg" xmlns:xlink="http://www.w3.org/1999/xlink" x="0px" y="0px"
	 width="110px" height="30px" viewBox="0 0 110 30" style="enable-background:new 0 0 110 30;" xml:space="preserve">
<style type="text/css">
	.st0{fill:#FFFFFF;}
</style>
<g id="XMLID_38_">
	<path id="XMLID_36_" d="M110,27c0,1.7-1.4,3-3.1,3H3C1.3,30,0,28.7,0,27V3C0,1.4,1.3,0,3,0h103.8c1.7,0,3.1,1.4,3.1,3V27L110,27z"
		/>
	<g id="XMLID_39_">
		<g id="XMLID_88_">
			<g id="XMLID_89_">
				<path id="XMLID_35_" class="st0" d="M29.3,15.1c0-2.1,1.8-3.1,1.9-3.2c-1-1.4-2.6-1.6-3.1-1.7c-1.3-0.1-2.6,0.8-3.3,0.8
					c-0.7,0-1.7-0.8-2.8-0.7c-1.4,0-2.8,0.8-3.5,2.1c-1.5,2.6-0.4,6.4,1.1,8.4c0.7,1,1.6,2.2,2.7,2.1c1.1,0,1.5-0.7,2.8-0.7
					c1.3,0,1.7,0.7,2.8,0.7c1.2,0,1.9-1,2.6-2.1c0.8-1.2,1.2-2.3,1.2-2.4C31.6,18.5,29.4,17.6,29.3,15.1z"/>
				<path id="XMLID_34_" class="st0" d="M27.2,8.9c0.6-0.7,1-1.7,0.9-2.7c-0.8,0-1.9,0.6-2.5,1.3c-0.5,0.6-1,1.6-0.9,2.6
					C25.6,10.1,26.6,9.6,27.2,8.9z"/>
			</g>
		</g>
		<g id="XMLID_69_">
			<path id="XMLID_85_" class="st0" d="M45.1,22.8h-1.5l-0.8-2.6h-2.9l-0.8,2.6h-1.5l2.9-8.7h1.8L45.1,22.8z M42.5,19.2l-0.8-2.3
				c-0.1-0.2-0.2-0.8-0.5-1.6h0c-0.1,0.4-0.2,0.9-0.4,1.6l-0.7,2.3H42.5z"/>
			<path id="XMLID_82_" class="st0" d="M52.5,19.6c0,1.1-0.3,1.9-0.9,2.5c-0.5,0.6-1.2,0.8-2,0.8c-0.8,0-1.5-0.3-1.8-0.9h0v3.3h-1.4
				v-6.8c0-0.7,0-1.4-0.1-2.1h1.3l0.1,1h0c0.5-0.8,1.2-1.1,2.2-1.1c0.8,0,1.4,0.3,1.9,0.9C52.3,17.8,52.5,18.6,52.5,19.6z
				 M51.1,19.6c0-0.6-0.1-1.1-0.4-1.5c-0.3-0.4-0.7-0.6-1.2-0.6c-0.4,0-0.7,0.1-1,0.3c-0.3,0.2-0.5,0.5-0.6,0.9
				c0,0.2-0.1,0.3-0.1,0.4v1c0,0.5,0.1,0.8,0.4,1.2c0.3,0.3,0.7,0.5,1.1,0.5c0.5,0,1-0.2,1.3-0.6C50.9,20.8,51.1,20.3,51.1,19.6z"/>
			<path id="XMLID_79_" class="st0" d="M59.9,19.6c0,1.1-0.3,1.9-0.9,2.5c-0.5,0.6-1.2,0.8-2,0.8c-0.8,0-1.5-0.3-1.8-0.9h0v3.3h-1.4
				v-6.8c0-0.7,0-1.4-0.1-2.1H55l0.1,1h0c0.5-0.8,1.2-1.1,2.2-1.1c0.8,0,1.4,0.3,1.9,0.9C59.7,17.8,59.9,18.6,59.9,19.6z M58.5,19.6
				c0-0.6-0.1-1.1-0.4-1.5c-0.3-0.4-0.7-0.6-1.2-0.6c-0.4,0-0.7,0.1-1,0.3c-0.3,0.2-0.5,0.5-0.6,0.9c0,0.2-0.1,0.3-0.1,0.4v1
				c0,0.5,0.1,0.8,0.4,1.2c0.3,0.3,0.7,0.5,1.1,0.5c0.5,0,1-0.2,1.3-0.6C58.3,20.8,58.5,20.3,58.5,19.6z"/>
			<path id="XMLID_27_" class="st0" d="M68.2,20.3c0,0.7-0.3,1.3-0.8,1.8c-0.6,0.5-1.4,0.8-2.4,0.8c-1,0-1.7-0.2-2.3-0.5l0.3-1.2
				c0.6,0.4,1.3,0.6,2.1,0.6c0.5,0,1-0.1,1.3-0.4c0.3-0.2,0.4-0.6,0.4-1c0-0.4-0.1-0.7-0.4-0.9c-0.2-0.2-0.7-0.5-1.2-0.7
				c-1.6-0.6-2.3-1.4-2.3-2.5c0-0.7,0.3-1.3,0.8-1.8c0.5-0.5,1.3-0.7,2.2-0.7c0.8,0,1.5,0.1,2,0.4l-0.4,1.1
				c-0.5-0.3-1.1-0.4-1.7-0.4c-0.5,0-0.9,0.1-1.2,0.4c-0.2,0.2-0.4,0.5-0.4,0.8c0,0.3,0.1,0.6,0.4,0.9c0.2,0.2,0.7,0.4,1.3,0.7
				c0.8,0.3,1.3,0.7,1.7,1.1C68,19.2,68.2,19.7,68.2,20.3z"/>
			<path id="XMLID_26_" class="st0" d="M73,17.5h-1.6v3.1c0,0.8,0.3,1.2,0.8,1.2c0.3,0,0.5,0,0.6-0.1l0,1.1
				c-0.3,0.1-0.7,0.2-1.1,0.2c-0.6,0-1-0.2-1.3-0.5c-0.3-0.3-0.5-0.9-0.5-1.7v-3.2H69v-1.1H70v-1.2l1.4-0.4v1.6H73V17.5z"/>
			<path id="XMLID_74_" class="st0" d="M80.1,19.6c0,1-0.3,1.8-0.8,2.4c-0.6,0.6-1.4,1-2.4,1c-0.9,0-1.7-0.3-2.3-0.9
				c-0.6-0.6-0.8-1.4-0.8-2.3c0-1,0.3-1.8,0.9-2.4c0.6-0.6,1.4-0.9,2.3-0.9c0.9,0,1.7,0.3,2.3,0.9C79.8,17.9,80.1,18.7,80.1,19.6z
				 M78.6,19.6c0-0.6-0.1-1.1-0.4-1.5c-0.3-0.5-0.7-0.8-1.3-0.8c-0.6,0-1,0.3-1.3,0.8c-0.3,0.4-0.4,0.9-0.4,1.5
				c0,0.6,0.1,1.1,0.4,1.5c0.3,0.5,0.7,0.8,1.3,0.8c0.5,0,1-0.3,1.3-0.8C78.5,20.7,78.6,20.2,78.6,19.6z"/>
			<path id="XMLID_23_" class="st0" d="M84.7,17.7c-0.1,0-0.3,0-0.5,0c-0.5,0-0.9,0.2-1.2,0.6c-0.2,0.3-0.4,0.7-0.4,1.2v3.3h-1.4
				l0-4.3c0-0.7,0-1.4-0.1-2h1.2l0.1,1.2h0c0.2-0.4,0.4-0.7,0.7-1c0.3-0.2,0.7-0.3,1-0.3c0.1,0,0.3,0,0.4,0V17.7z"/>
			<path id="XMLID_70_" class="st0" d="M91.1,19.3c0,0.3,0,0.5-0.1,0.6h-4.3c0,0.6,0.2,1.1,0.6,1.4c0.4,0.3,0.8,0.4,1.4,0.4
				c0.6,0,1.2-0.1,1.7-0.3l0.2,1c-0.6,0.3-1.3,0.4-2.2,0.4c-1,0-1.8-0.3-2.4-0.9c-0.6-0.6-0.9-1.3-0.9-2.3c0-0.9,0.3-1.7,0.8-2.4
				c0.6-0.7,1.3-1,2.3-1c0.9,0,1.6,0.3,2.1,1C90.9,17.9,91.1,18.6,91.1,19.3z M89.8,19c0-0.4-0.1-0.8-0.3-1.1
				c-0.2-0.4-0.6-0.6-1.1-0.6c-0.5,0-0.8,0.2-1.1,0.6c-0.2,0.3-0.4,0.7-0.4,1.1L89.8,19L89.8,19z"/>
		</g>
		<g id="XMLID_40_">
			<g id="XMLID_41_">
				<path id="XMLID_66_" class="st0" d="M42,8.7c0,0.8-0.2,1.4-0.7,1.7c-0.4,0.4-1.1,0.5-1.9,0.5c-0.4,0-0.7,0-1-0.1V6.7
					c0.4-0.1,0.8-0.1,1.2-0.1c0.8,0,1.3,0.2,1.7,0.5C41.8,7.5,42,8,42,8.7z M41.3,8.7c0-0.5-0.1-0.9-0.4-1.2
					c-0.3-0.3-0.7-0.4-1.2-0.4c-0.2,0-0.4,0-0.6,0v3.2c0.1,0,0.2,0,0.5,0c0.5,0,1-0.1,1.2-0.4C41.2,9.7,41.3,9.3,41.3,8.7z"/>
				<path id="XMLID_63_" class="st0" d="M46,9.4c0,0.5-0.1,0.9-0.4,1.2c-0.3,0.3-0.7,0.5-1.2,0.5c-0.5,0-0.8-0.2-1.1-0.5
					c-0.3-0.3-0.4-0.7-0.4-1.1c0-0.5,0.1-0.9,0.4-1.2c0.3-0.3,0.7-0.5,1.1-0.5c0.5,0,0.8,0.2,1.1,0.5C45.8,8.5,46,8.9,46,9.4z
					 M45.3,9.4c0-0.3-0.1-0.5-0.2-0.7c-0.1-0.2-0.4-0.4-0.6-0.4c-0.3,0-0.5,0.1-0.6,0.4c-0.1,0.2-0.2,0.5-0.2,0.7
					c0,0.3,0.1,0.5,0.2,0.7c0.2,0.2,0.4,0.4,0.6,0.4c0.3,0,0.5-0.1,0.6-0.4C45.2,9.9,45.3,9.7,45.3,9.4z"/>
				<path id="XMLID_16_" class="st0" d="M51.3,7.8l-1,3.1h-0.6l-0.4-1.3c-0.1-0.3-0.2-0.7-0.3-1h0c-0.1,0.3-0.1,0.7-0.3,1l-0.4,1.3
					h-0.7l-0.9-3.1h0.7l0.4,1.5c0.1,0.3,0.2,0.7,0.2,1h0c0.1-0.3,0.1-0.6,0.3-1l0.4-1.5h0.6l0.4,1.4c0.1,0.4,0.2,0.7,0.3,1h0
					c0-0.3,0.1-0.7,0.2-1l0.4-1.4L51.3,7.8L51.3,7.8z"/>
				<path id="XMLID_15_" class="st0" d="M54.9,10.9h-0.7V9.2c0-0.5-0.2-0.8-0.6-0.8c-0.2,0-0.4,0.1-0.5,0.2
					c-0.1,0.2-0.2,0.3-0.2,0.5v1.8h-0.7V8.7c0-0.3,0-0.6,0-0.9h0.6l0,0.5h0C52.9,8.2,53,8,53.2,7.9c0.2-0.1,0.4-0.2,0.6-0.2
					c0.3,0,0.5,0.1,0.7,0.3c0.2,0.2,0.4,0.6,0.4,1V10.9z"/>
				<path id="XMLID_14_" class="st0" d="M56.8,10.9h-0.7V6.4h0.7V10.9z"/>
				<path id="XMLID_57_" class="st0" d="M61,9.4c0,0.5-0.1,0.9-0.4,1.2c-0.3,0.3-0.7,0.5-1.2,0.5c-0.5,0-0.8-0.2-1.1-0.5
					c-0.3-0.3-0.4-0.7-0.4-1.1c0-0.5,0.1-0.9,0.4-1.2c0.3-0.3,0.7-0.5,1.1-0.5c0.5,0,0.8,0.2,1.1,0.5C60.8,8.5,61,8.9,61,9.4z
					 M60.3,9.4c0-0.3-0.1-0.5-0.2-0.7c-0.1-0.2-0.4-0.4-0.6-0.4c-0.3,0-0.5,0.1-0.6,0.4c-0.1,0.2-0.2,0.5-0.2,0.7
					c0,0.3,0.1,0.5,0.2,0.7c0.2,0.2,0.4,0.4,0.6,0.4c0.3,0,0.5-0.1,0.6-0.4C60.2,9.9,60.3,9.7,60.3,9.4z"/>
				<path id="XMLID_54_" class="st0" d="M64.4,10.9h-0.6l-0.1-0.4h0c-0.2,0.3-0.5,0.4-0.9,0.4c-0.3,0-0.5-0.1-0.7-0.3
					c-0.2-0.2-0.2-0.4-0.2-0.6c0-0.4,0.2-0.7,0.5-0.9c0.3-0.2,0.8-0.3,1.4-0.3V8.9c0-0.4-0.2-0.6-0.7-0.6c-0.3,0-0.6,0.1-0.8,0.2
					L62,8c0.3-0.2,0.7-0.3,1.1-0.3c0.8,0,1.2,0.4,1.2,1.3v1.1C64.3,10.5,64.4,10.8,64.4,10.9z M63.7,9.9V9.4c-0.8,0-1.2,0.2-1.2,0.6
					c0,0.2,0,0.3,0.1,0.4c0.1,0.1,0.2,0.1,0.3,0.1c0.2,0,0.3,0,0.4-0.1c0.1-0.1,0.2-0.2,0.2-0.4C63.7,10,63.7,9.9,63.7,9.9z"/>
				<path id="XMLID_51_" class="st0" d="M68.4,10.9h-0.6l0-0.5h0c-0.2,0.4-0.5,0.6-1,0.6c-0.4,0-0.7-0.1-0.9-0.4
					c-0.3-0.3-0.4-0.7-0.4-1.1c0-0.5,0.1-0.9,0.4-1.2c0.3-0.3,0.6-0.4,1-0.4c0.4,0,0.7,0.1,0.9,0.4h0V6.4h0.7v3.7
					C68.4,10.4,68.4,10.7,68.4,10.9z M67.7,9.6V9.1c0-0.1,0-0.2,0-0.2c0-0.2-0.1-0.3-0.3-0.4c-0.1-0.1-0.3-0.2-0.5-0.2
					c-0.3,0-0.5,0.1-0.6,0.3c-0.1,0.2-0.2,0.5-0.2,0.8c0,0.3,0.1,0.6,0.2,0.7c0.2,0.2,0.4,0.3,0.6,0.3c0.2,0,0.4-0.1,0.6-0.3
					C67.6,10,67.7,9.8,67.7,9.6z"/>
				<path id="XMLID_48_" class="st0" d="M74.4,9.4c0,0.5-0.1,0.9-0.4,1.2c-0.3,0.3-0.7,0.5-1.2,0.5c-0.5,0-0.8-0.2-1.1-0.5
					c-0.3-0.3-0.4-0.7-0.4-1.1c0-0.5,0.1-0.9,0.4-1.2c0.3-0.3,0.7-0.5,1.1-0.5c0.5,0,0.8,0.2,1.1,0.5C74.3,8.5,74.4,8.9,74.4,9.4z
					 M73.7,9.4c0-0.3-0.1-0.5-0.2-0.7c-0.1-0.2-0.4-0.4-0.6-0.4c-0.3,0-0.5,0.1-0.6,0.4C72.1,8.9,72,9.1,72,9.4
					c0,0.3,0.1,0.5,0.2,0.7c0.2,0.2,0.4,0.4,0.6,0.4c0.3,0,0.5-0.1,0.6-0.4C73.6,9.9,73.7,9.7,73.7,9.4z"/>
				<path id="XMLID_5_" class="st0" d="M78.2,10.9h-0.7V9.2c0-0.5-0.2-0.8-0.6-0.8c-0.2,0-0.4,0.1-0.5,0.2c-0.1,0.2-0.2,0.3-0.2,0.5
					v1.8h-0.7V8.7c0-0.3,0-0.6,0-0.9H76l0,0.5h0c0.1-0.2,0.2-0.3,0.4-0.4c0.2-0.1,0.4-0.2,0.6-0.2c0.3,0,0.5,0.1,0.7,0.3
					c0.2,0.2,0.4,0.6,0.4,1V10.9z"/>
				<path id="XMLID_4_" class="st0" d="M82.9,8.4h-0.8v1.5c0,0.4,0.1,0.6,0.4,0.6c0.1,0,0.2,0,0.3,0l0,0.5C82.7,11,82.6,11,82.3,11
					c-0.3,0-0.5-0.1-0.7-0.2c-0.2-0.2-0.2-0.4-0.2-0.8V8.4H81V7.8h0.5V7.3l0.7-0.2v0.8h0.8V8.4L82.9,8.4z"/>
				<path id="XMLID_3_" class="st0" d="M86.6,10.9h-0.7V9.2c0-0.6-0.2-0.8-0.6-0.8c-0.3,0-0.5,0.2-0.7,0.5c0,0.1,0,0.2,0,0.2v1.9
					h-0.7V6.4h0.7v1.9h0c0.2-0.3,0.5-0.5,1-0.5c0.3,0,0.5,0.1,0.7,0.3c0.2,0.2,0.4,0.6,0.4,1V10.9z"/>
				<path id="XMLID_42_" class="st0" d="M90.5,9.2c0,0.1,0,0.2,0,0.3h-2.1c0,0.3,0.1,0.5,0.3,0.7c0.2,0.1,0.4,0.2,0.7,0.2
					c0.3,0,0.6,0,0.9-0.1l0.1,0.5C90,10.9,89.7,11,89.2,11c-0.5,0-0.9-0.1-1.2-0.4c-0.3-0.3-0.4-0.7-0.4-1.1c0-0.5,0.1-0.9,0.4-1.2
					c0.3-0.3,0.6-0.5,1.1-0.5c0.5,0,0.8,0.2,1,0.5C90.4,8.5,90.5,8.9,90.5,9.2z M89.8,9.1c0-0.2,0-0.4-0.1-0.5
					c-0.1-0.2-0.3-0.3-0.6-0.3c-0.2,0-0.4,0.1-0.6,0.3c-0.1,0.1-0.2,0.3-0.2,0.5H89.8z"/>
			</g>
		</g>
	</g>
</g>
</svg>
