<?xml version="1.0" encoding="utf-8"?>
<!-- Generator: Adobe Illustrator 19.0.0, SVG Export Plug-In . SVG Version: 6.00 Build 0)  -->
<svg version="1.1" id="Layer_1" xmlns="http://www.w3.org/2000/svg" xmlns:xlink="http://www.w3.org/1999/xlink" x="0px" y="0px"
	 width="110px" height="30px" viewBox="0 0 110 30" style="enable-background:new 0 0 110 30;" xml:space="preserve">
<style type="text/css">
	.st0{fill:url(#XMLID_87_);}
	.st1{fill:url(#XMLID_88_);}
	.st2{fill:url(#XMLID_89_);}
	.st3{fill:url(#XMLID_90_);}
	.st4{fill:#FFFFFF;}
</style>
<g id="XMLID_31_">
	<path id="XMLID_29_" d="M110,27c0,1.7-1.4,3-3.1,3H3.1C1.4,30,0,28.7,0,27V3c0-1.7,1.4-3,3.1-3h103.8c1.7,0,3.1,1.4,3.1,3L110,27
		L110,27z"/>
	<g id="XMLID_32_">
		<g id="XMLID_71_">
			<linearGradient id="XMLID_87_" gradientUnits="userSpaceOnUse" x1="28.7977" y1="16.5174" x2="26.8968" y2="12.7866">
				<stop  offset="0" style="stop-color:#FBD08F"/>
				<stop  offset="1" style="stop-color:#F69675"/>
			</linearGradient>
			<path id="XMLID_28_" class="st0" d="M27.3,17.3c1.8-1,3.2-1.7,3.3-1.8c0.4-0.2,0.8-0.7,0-1.1c-0.2-0.1-1.6-0.9-3.3-1.8L24.9,15
				L27.3,17.3z"/>
			<linearGradient id="XMLID_88_" gradientUnits="userSpaceOnUse" x1="25.9318" y1="15.9379" x2="18.6089" y2="23.7908">
				<stop  offset="0" style="stop-color:#E64048"/>
				<stop  offset="1" style="stop-color:#80509F"/>
			</linearGradient>
			<path id="XMLID_27_" class="st1" d="M24.9,15l-7.7,7.5c0.2,0,0.4,0,0.6-0.2c0.5-0.3,5.8-3.1,9.4-5L24.9,15z"/>
			<linearGradient id="XMLID_89_" gradientUnits="userSpaceOnUse" x1="25.9718" y1="13.8929" x2="18.53" y2="6.1867">
				<stop  offset="0" style="stop-color:#E5ECA9"/>
				<stop  offset="1" style="stop-color:#49BDBB"/>
			</linearGradient>
			<path id="XMLID_26_" class="st2" d="M24.9,15l2.4-2.4c0,0-8.9-4.7-9.4-5c-0.2-0.1-0.4-0.1-0.6-0.1L24.9,15z"/>
			<linearGradient id="XMLID_90_" gradientUnits="userSpaceOnUse" x1="20.7537" y1="22.4911" x2="20.7537" y2="7.462">
				<stop  offset="0" style="stop-color:#91D3CE"/>
				<stop  offset="1" style="stop-color:#187490"/>
			</linearGradient>
			<path id="XMLID_25_" class="st3" d="M24.9,15l-7.7-7.5c-0.3,0.1-0.6,0.3-0.6,0.9c0,0.9,0,12.5,0,13.3c0,0.5,0.2,0.9,0.6,0.9
				L24.9,15z"/>
		</g>
		<g id="XMLID_49_">
			<rect id="XMLID_24_" x="81.3" y="14.1" class="st4" width="0.6" height="7.6"/>
			<path id="XMLID_67_" class="st4" d="M87.6,20.8v-3.1c0,0,0-1.7-2.2-1.7c-2.2,0-2.2,1.6-2.2,1.6l0.7,0c0,0,0-1.1,1.5-1.1
				c1.6,0,1.6,1.2,1.6,1.2v0.7l-1.3,0c-1.8,0-2.7,0.7-2.7,1.7c0,1,0.5,1.7,1.9,1.7c1.3,0,2.1-0.9,2.1-0.9c0,0.4,0.2,0.8,0.2,0.8h0.7
				C87.9,21.7,87.6,21.3,87.6,20.8z M86.9,19.7c0,1.1-1.4,1.6-2.1,1.6c-0.7,0-1.3-0.3-1.3-1.1c0-0.7,0.9-1.2,2-1.2h1.3V19.7z"/>
			<path id="XMLID_21_" class="st4" d="M88.3,16.2H89l2.1,4.7l2-4.7h0.8c0,0-2.7,6.1-2.9,6.7c-0.2,0.6-0.8,1.1-1.6,1.1
				c-0.3,0-0.7-0.2-0.7-0.2l0.2-0.5c0,0,0.2,0.1,0.5,0.1c0.3,0,0.9-0.7,0.9-0.7l0.4-0.9L88.3,16.2z"/>
			<path id="XMLID_63_" class="st4" d="M77.9,16.1c-1.2,0-2,1-2,1v-0.9h0h-0.6v7.6h0.6h0v-3c0,0,0.6,1,2,1c1.4,0,2.5-0.9,2.5-2.9
				C80.5,16.9,79.2,16.1,77.9,16.1z M77.8,21.3c-1.2,0-1.9-1.2-1.9-1.2v-2.4c0,0,0.9-1.2,2-1.2c1,0,1.9,1,1.9,2.4
				C79.8,20.3,79,21.3,77.8,21.3z"/>
			<path id="XMLID_18_" class="st4" d="M45.1,14.6c0,0-0.9-0.9-3.3-0.9c-2.9,0-4.5,2.1-4.5,4.2c0,1.8,1.3,4,4.4,4
				c1.6,0,3.4-0.6,3.4-0.6s0-0.7,0-1.4c0-0.7,0.5-0.9,0.5-0.9h-2.5l-0.9,0.5c0.5-0.1,1.7-0.1,1.7-0.1v1.7c0,0-0.6,0.3-1.4,0.3
				c-2.4,0-4-2.1-4-4c0-2.3,1.7-3.3,3.2-3.3c1.5,0,2.3,1.1,2.3,1.1l-0.3,0.4l0.4-0.1L45.1,14.6z"/>
			<path id="XMLID_59_" class="st4" d="M49.1,16.1c-1.7,0-3,1.2-3,2.9c0,1.2,1,2.8,2.9,2.8c1.8,0,3.1-1.2,3.1-2.9
				C52,17.2,50.7,16.1,49.1,16.1z M49.2,21.4c-1.4,0-2-2.1-2-3.1c0-1.1,0.7-1.8,1.6-1.8c1.2,0,2,1.4,2,3
				C50.8,20,50.6,21.4,49.2,21.4z"/>
			<path id="XMLID_56_" class="st4" d="M55.6,16.1c-1.7,0-3,1.2-3,2.9c0,1.2,1,2.7,2.9,2.7c1.8,0,3.1-1.2,3.1-2.9
				C58.5,17.2,57.3,16.1,55.6,16.1z M55.7,21.4c-1.4,0-2-2.1-2-3.1c0-1.1,0.7-1.8,1.6-1.8c1.2,0,2,1.4,2,3
				C57.3,20,57.1,21.4,55.7,21.4z"/>
			<path id="XMLID_52_" class="st4" d="M63.3,21.4c-0.6-0.4-0.7-0.6-0.7-0.8c0-0.2,0-0.3,0.4-0.7c0.4-0.4,0.8-0.8,0.8-1.6
				c0-1.1-0.8-1.6-0.8-1.6l0.7,0l0.7-0.4c0,0-1.4,0-2.8,0c-1.5,0-2.6,1.1-2.6,2.3c0,0.8,0.7,1.8,2.1,1.8c0.1,0,0.2,0,0.2,0
				s-0.1,0.2-0.1,0.4c0,0.4,0.3,0.8,0.3,0.8s-3.3,0-3.3,2.1c0,1.2,1.4,1.7,2.6,1.7c1.2,0,3.2-0.6,3.2-2.2
				C64.3,22.3,63.9,21.8,63.3,21.4z M61.7,20c-0.9,0-1.5-1.3-1.5-2c0-0.8,0.4-1.3,1.1-1.3c0.7,0,1.5,0.8,1.5,2.2
				C62.8,19.4,62.6,20,61.7,20z M61.7,24.8c-0.4,0-2.1-0.2-2.1-1.5c0-1.3,2-1.4,2.2-1.4c0.2,0,0.4,0,0.4,0c0.6,0.5,1.3,0.8,1.3,1.6
				C63.5,24.7,62.1,24.8,61.7,24.8z"/>
			<path id="XMLID_10_" class="st4" d="M64.4,13.7l0.8-0.4H67c-0.4,0.2-0.6,0.4-0.6,1.4c0,1-0.1,6.1-0.1,6.1c0,0.4,0.3,0.5,0.7,0.5
				c0.3,0,0.4,0.1,0.4,0.1L67,21.6h-2.2c0,0,0.3-0.3,0.3-0.5l0.1-7.4L64.4,13.7z"/>
			<path id="XMLID_9_" class="st4" d="M72.2,17.6c0,0-0.3-1.5-2.1-1.5c-1.8,0-2.8,1.4-2.8,2.8c0,1.4,0.8,2.9,2.9,2.9
				c1.5,0,2.1-1.1,2.1-1.1s-0.7,0.4-1.5,0.4c-1.2,0-2.5-1.2-2.5-2.9c0-1.2,0.8-1.7,1.4-1.7c1.1,0,1.3,0.9,1.2,1.1
				c-0.1,0.2-2.5,1.1-2.5,1.1l1,0L72.2,17.6z"/>
		</g>
		<g id="XMLID_33_">
			<path id="XMLID_47_" class="st4" d="M39.3,9.6c0.2,0,0.3,0,0.4,0c0.1,0,0.2-0.1,0.3-0.1V8.8h-0.5c0,0-0.1,0-0.1,0
				c0,0,0-0.1,0-0.1V8.2h1.3v1.5c-0.1,0.1-0.2,0.1-0.3,0.2C40.3,10,40.2,10,40,10.1c-0.1,0-0.3,0.1-0.4,0.1c-0.1,0-0.3,0-0.4,0
				c-0.3,0-0.5,0-0.8-0.1c-0.2-0.1-0.4-0.2-0.6-0.4c-0.2-0.2-0.3-0.4-0.4-0.6c-0.1-0.2-0.1-0.5-0.1-0.8c0-0.3,0-0.5,0.1-0.8
				c0.1-0.2,0.2-0.4,0.4-0.6c0.2-0.2,0.4-0.3,0.6-0.4c0.2-0.1,0.5-0.1,0.8-0.1c0.3,0,0.6,0,0.8,0.1c0.2,0.1,0.4,0.2,0.6,0.4
				l-0.2,0.3c0,0.1-0.1,0.1-0.2,0.1c0,0-0.1,0-0.1,0c-0.1,0-0.1-0.1-0.2-0.1C39.9,7,39.9,7,39.8,7c-0.1,0-0.2,0-0.2-0.1
				c-0.1,0-0.2,0-0.3,0c-0.2,0-0.4,0-0.5,0.1c-0.2,0.1-0.3,0.2-0.4,0.3c-0.1,0.1-0.2,0.3-0.3,0.4C38,7.9,38,8,38,8.2
				c0,0.2,0,0.4,0.1,0.6c0.1,0.2,0.2,0.3,0.3,0.4c0.1,0.1,0.2,0.2,0.4,0.3C38.9,9.6,39.1,9.6,39.3,9.6z"/>
			<path id="XMLID_45_" class="st4" d="M44.2,6.3v0.6h-1.7V8h1.4v0.5h-1.4v1.1h1.7v0.6h-2.4V6.3H44.2z"/>
			<path id="XMLID_43_" class="st4" d="M47.9,6.3v0.6h-1.2v3.2H46V6.9h-1.2V6.3H47.9z"/>
			<path id="XMLID_41_" class="st4" d="M51,10.1h-0.7V6.3H51V10.1z"/>
			<path id="XMLID_39_" class="st4" d="M55,6.3v0.6h-1.2v3.2h-0.7V6.9h-1.2V6.3H55z"/>
			<path id="XMLID_36_" class="st4" d="M61,8.2c0,0.3,0,0.5-0.1,0.8c-0.1,0.2-0.2,0.4-0.4,0.6C60.3,9.8,60,9.9,59.8,10
				c-0.2,0.1-0.5,0.1-0.8,0.1c-0.3,0-0.6,0-0.8-0.1c-0.2-0.1-0.5-0.2-0.6-0.4c-0.2-0.2-0.3-0.4-0.4-0.6C57.1,8.8,57,8.5,57,8.2
				c0-0.3,0-0.5,0.1-0.8c0.1-0.2,0.2-0.4,0.4-0.6c0.2-0.2,0.4-0.3,0.6-0.4c0.2-0.1,0.5-0.1,0.8-0.1c0.3,0,0.6,0,0.8,0.1
				c0.2,0.1,0.4,0.2,0.6,0.4c0.2,0.2,0.3,0.4,0.4,0.6C60.9,7.7,61,8,61,8.2z M60.2,8.2c0-0.2,0-0.4-0.1-0.6
				c-0.1-0.2-0.1-0.3-0.2-0.4c-0.1-0.1-0.2-0.2-0.4-0.3c-0.2-0.1-0.3-0.1-0.5-0.1c-0.2,0-0.4,0-0.5,0.1c-0.2,0.1-0.3,0.1-0.4,0.3
				c-0.1,0.1-0.2,0.3-0.2,0.4c-0.1,0.2-0.1,0.4-0.1,0.6c0,0.2,0,0.4,0.1,0.6C57.9,9,58,9.1,58.1,9.2c0.1,0.1,0.2,0.2,0.4,0.3
				c0.2,0.1,0.3,0.1,0.5,0.1c0.2,0,0.4,0,0.5-0.1c0.2-0.1,0.3-0.1,0.4-0.3C60,9.1,60.1,9,60.1,8.8C60.2,8.6,60.2,8.5,60.2,8.2z"/>
			<path id="XMLID_34_" class="st4" d="M62.4,6.4C62.4,6.4,62.4,6.4,62.4,6.4c0.1,0,0.1,0,0.1,0c0,0,0,0,0.1,0.1l2,2.5
				c0-0.1,0-0.1,0-0.2c0-0.1,0-0.1,0-0.2V6.3h0.6v3.8h-0.4c-0.1,0-0.1,0-0.1,0c0,0-0.1,0-0.1-0.1l-2-2.5c0,0.1,0,0.1,0,0.2
				c0,0.1,0,0.1,0,0.2v2.3h-0.6V6.3L62.4,6.4C62.3,6.3,62.4,6.3,62.4,6.4z"/>
		</g>
	</g>
</g>
</svg>
